<?xml version="1.0" encoding="utf-8"?>
<!-- Generator: Adobe Illustrator 21.0.2, SVG Export Plug-In . SVG Version: 6.00 Build 0)  -->
<svg version="1.1" id="Layer_1" xmlns="http://www.w3.org/2000/svg" xmlns:xlink="http://www.w3.org/1999/xlink" x="0px" y="0px"
	 viewBox="0 0 1000 1000" style="enable-background:new 0 0 1000 1000;" xml:space="preserve">
<style type="text/css">
	.st0{fill:#FFFFFF;}
</style>
<g>
	<g>
		<path class="st0" d="M1.7,950c0-294.9,0-589.8,0-884.8c333.1,0,666.2,0,999.7,0c0,294.8,0,589.8,0,884.8
			C668.3,950,335.1,950,1.7,950z M827.3,479.7c0,36.9,0,73.3,0,109.5c-13.6,0-26,0-38.5,0c-0.1-0.9-0.1-1.7-0.2-2.6
			c11-3.1,22.9,0.5,34.1-2c0-52.9,0-105.3,0-158.4c-11.5,0-22.6,0-33.4,0c-4.1-12.2-7.9-23.8-12-35.2
			c-14.1-39.4-36.4-73.9-64.3-104.7c-20.9-23-45.2-42.9-72.8-56.8c-25.4-12.9-52.6-24.1-80.3-30.3c-44.1-9.8-88.5-8.7-132.8,4.6
			c-35.6,10.6-68.3,25.7-97.7,47.8c-31.2,23.5-57.3,52-77.1,85.8c-8.9,15.2-16.6,31.3-23.6,47.5c-5.7,13.2-9.7,27.1-14.8,41.7
			c-10.8,0-22,0-33.1,0c0,53.4,0,105.8,0,158c11.4,2.8,23.3-1.9,33.7,4.9c-12.6,0-25.2,0-39,0c0-37,0-73.4,0-109.7
			c-28.5,0-55.9,0-84.1,0c15.1,21.9,29.7,43,44.2,64c-14.9,21.6-29.4,42.6-44.7,64.8c4.6,0,7.6,0,10.6,0c36.4,0,72.8,0.3,109.1-0.2
			c7.9-0.1,10.5,2.8,13.5,9.6c10,22.7,19.3,46.1,32.2,67.1c21.4,34.9,50.1,64.1,84,87.1c18.4,12.5,38.6,22.9,59.3,30.9
			c19.4,7.5,40.3,12.5,61,15.5c53.4,7.6,105.4,2.7,154.9-20.7c21.5-10.2,43.1-20.2,61-36.4c13.1-11.8,26.9-23,38.9-35.8
			c29.2-31.4,50.8-67.5,64.2-108.4c2.1-6.5,5-9,12.2-8.9c36.9,0.4,73.9,0.2,110.8,0.2c2.8,0,5.7,0,9.9,0
			c-15.6-22.5-30-43.4-44.8-64.8c14.6-21.1,29.1-42.2,44.2-64C883.8,479.7,856.4,479.7,827.3,479.7z"/>
		<path d="M827.3,479.7c29.1,0,56.5,0,84.7,0c-15.1,21.9-29.7,43-44.2,64c14.8,21.4,29.2,42.3,44.8,64.8c-4.2,0-7,0-9.9,0
			c-36.9,0-73.9,0.2-110.8-0.2c-7.2-0.1-10.1,2.4-12.2,8.9c-13.4,40.8-35.1,77-64.2,108.4c-12,12.9-25.8,24-38.9,35.8
			c-17.9,16.2-39.4,26.2-61,36.4c-49.5,23.4-101.6,28.3-154.9,20.7c-20.7-3-41.6-7.9-61-15.5c-20.7-8-41-18.5-59.3-30.9
			c-33.9-23-62.6-52.1-84-87.1c-12.9-21.1-22.3-44.4-32.2-67.1c-3-6.8-5.6-9.7-13.5-9.6c-36.4,0.5-72.8,0.2-109.1,0.2
			c-3,0-6,0-10.6,0c15.3-22.2,29.9-43.3,44.7-64.8c-14.5-21-29.1-42.1-44.2-64c28.2,0,55.6,0,84.1,0c0,36.3,0,72.8,0,109.7
			c13.7,0,26.3,0,39,0c-10.3-6.8-22.2-2.1-33.7-4.9c0-52.2,0-104.6,0-158c11.1,0,22.3,0,33.1,0c5.1-14.6,9.1-28.6,14.8-41.7
			c7-16.2,14.7-32.3,23.6-47.5c19.8-33.7,45.9-62.3,77.1-85.8c29.4-22.2,62.2-37.2,97.7-47.8c44.3-13.2,88.8-14.4,132.8-4.6
			c27.7,6.2,54.9,17.4,80.3,30.3c27.6,13.9,51.9,33.8,72.8,56.8c27.9,30.7,50.3,65.2,64.3,104.7c4.1,11.5,7.8,23,12,35.2
			c10.9,0,21.9,0,33.4,0c0,53.1,0,105.4,0,158.4c-11.1,2.5-23-1.1-34.1,2c0.1,0.9,0.1,1.7,0.2,2.6c12.4,0,24.8,0,38.5,0
			C827.3,553.1,827.3,516.6,827.3,479.7z M226.2,585.9c0.5,3.4,0.5,6.5,1.4,9.3c3.5,10.8,6.7,21.8,11,32.2
			c13.5,32.4,31.7,62,54.9,88.4c20.3,23.2,44,43.2,70.8,57.8c22.4,12.2,46.5,22.6,71.2,28.9c48.5,12.5,97.5,12.6,145.6-4.3
			c23.7-8.3,46.9-17,68.2-31.3c25-16.8,47-36.2,66.6-59.1c28-32.9,46.5-70.5,59.3-111.3c1-3.3,1.2-6.8,1.9-10.6
			C593,585.9,410.1,585.9,226.2,585.9z M224.9,425.4c185.7,0,368.5,0,551.8,0c-10.9-41.8-29.7-78.8-55.7-112
			c-16.2-20.7-34.9-39.3-56.3-54.6c-16-11.5-33.3-21.8-51.2-30.2c-26.5-12.4-55-19.5-84.2-21.6c-52.4-3.8-102.9,2.3-150.4,27.7
			c-22.1,11.8-42.8,25.1-61.5,41.7c-28.5,25.2-51.4,54.9-67.9,89C240.2,384.5,233.3,404.6,224.9,425.4z M555.9,531.2
			c10.6,12.4,19.8,13.6,35.6,4.5c7,6.8,8.9,7.1,17.6,4.1c2-0.7,4.8-0.8,6.8,0c12.8,5.3,22.7-3.7,33.7-6.9c3-0.9,5.6-5.5,6.9-8.9
			c0.9-2.5-0.5-6-1.1-10.3c-5.2,5.8-8.6,9.6-11.3,12.7c-3.6-7.8-6.6-14.5-9.8-21.1c-2.6-5.3-6.6-9.7-3.6-16.6
			c2.2-5.2-3.5-11.8-9.4-11.9c-6.8-0.1-13.7,0-21.1,0c0-7.2-0.1-13.2,0-19.3c0.1-7.4-3.3-9.2-9.8-6.9c0,8.8,0,17.3,0,25.7
			c-4.4,0.5-8.1,0.8-11.8,1.2c-0.3,10,7.8,6.2,12.5,8.6c0,6.2,0.5,12.6-0.1,18.9c-0.7,6.8-1.3,14-4.2,19.9c-1.9,3.8-7.6,7.3-12,7.9
			c-3.1,0.4-6.9-4.3-11.5-7.6c12-5.7,18.8-12.8,18.9-24.5c0.1-5.6-0.7-10.8-6.6-13.2c-6.4-2.6-12.4-0.2-15.2,5.1
			c-3.5,6.6-4.8,14.4-7.4,21.5c-2.1,5.8-4.5,11.5-7.4,17c-0.6,1.2-4.7,2-6.1,1.1c-5.2-3-5.8-10-1.6-14.3c5.8-6,8.3-13,7.1-21.3
			c-1.4-9.3-9.5-12.8-17.3-7.5c-2.3,1.6-4.5,3.4-7.6,5.8c0-12.7,0-24.1,0-35.4c0-6.7-3.2-8.7-9.1-7.3c0,19.4,0.1,38.2-0.1,57.1
			c-0.1,8.6-1.9,17-10.2,21.3c-3,1.5-8.4,1.6-11-0.2c-10-6.8-7.6-16.9-4.8-26.3c1-3.4,4.5-6.1,6.8-9.1c1.7,2.9,3.3,5.8,5,8.6
			c0.3,0.4,0.7,0.8,1.4,1.4c6.3-0.7,6.3-5.3,5.2-9.7c-1.7-6.6-6.5-9.8-13.2-8.5c-7.8,1.6-12.4,7.2-14.6,14.5
			c-1.5,5-1.9,10.3-2.7,15.5c-1,6-2.5,7.2-8.4,7c-0.7-8.6-0.6-17.2-2.4-25.4c-0.7-3.3-5.7-5.7-8.8-8.4c-2.8,3.3-7.3,6.2-8.2,9.9
			c-2.4,9.9,0.3,19.2,8.1,28c-2.9,1.9-5.4,5-7.8,4.9c-2.1-0.1-4.9-3.3-6-5.8c-4.7-10.4-2-20.5,2.2-30.5c1.2-2.8,0.8-6.3,1.1-9.4
			c-1.1-0.3-2.3-0.7-3.4-1c-2.6,3.7-6.1,7.1-7.5,11.2c-2.1,6.2-2.9,12.9-3.8,19.4c-0.9,6.5-1.8,12.9-9.2,17.3
			c-0.8-3.7-1.8-6.5-1.9-9.4c-0.2-7.8-0.1-15.5-0.1-23.3c0-5.7,0.1-11.7-6.4-14c-6.9-2.5-10.7,2.3-14.2,7.2c-0.3,0.4-1,0.4-1.5,0.6
			c-6.2-11.6-10.7-11.6-20.9-1.3c-3.4-2.3-6.5-4.4-11.1-7.5c0,7.1,0,11.2,0,15.3c0,11.1-0.2,22.2,0.3,33.3c0.1,2.2,3.1,4.3,4.7,6.5
			c1.4-2.2,3.7-4.3,3.9-6.7c0.6-5.5-0.2-11.1,0.3-16.6c0.9-8.9,3.3-17.4,11.9-24.7c0.6,4,1.2,6.1,1.2,8.2
			c0.1,11.1-0.2,22.2,0.3,33.3c0.1,2.2,3.1,4.4,4.7,6.5c1.5-2.2,3.9-4.2,4.2-6.5c0.6-6-0.3-12.3,0.5-18.3
			c1.1-8.3,2.8-16.6,11.9-22.9c0.5,4.8,1,8,1,11.2c0.2,8.6-0.2,17.2,0.4,25.8c0.7,10.3,9.4,14.1,17.7,8.1c1.9-1.4,3.5-3.2,5.2-4.8
			c10.2,10,16.6,10.1,27.5,1.3c1.3-1.1,3.3-1.5,5.1-2c3.8-1,7.6-1.8,11.7-2.8c9.5,12.6,18.1,14.3,33.7,6.6c3.3,1.6,6,2.9,8.7,4.2
			c0.8-2.7,2.2-5.3,2.4-8.1c0.4-5.2-0.8-10.7,0.3-15.8c1.4-6.6,4.1-13,6.9-19.2c0.7-1.6,4.1-2,6.2-3c1,2.1,3.2,4.8,2.6,6.4
			c-1.7,4.8-4.6,9.1-6.9,13.7c-1.4,2.8-3.9,5.8-3.7,8.5c0.5,8.9,6.4,16.5,13,17.4C546.7,542.6,552,537.9,555.9,531.2z"/>
		<path class="st0" d="M226.2,585.9c183.9,0,366.8,0,550.9,0c-0.7,3.8-0.8,7.3-1.9,10.6c-12.8,40.8-31.3,78.4-59.3,111.3
			c-19.5,22.9-41.6,42.3-66.6,59.1c-21.3,14.3-44.5,22.9-68.2,31.3C533,815.1,484,815,435.6,802.5c-24.6-6.3-48.8-16.7-71.2-28.9
			c-26.9-14.7-50.5-34.6-70.8-57.8c-23.1-26.4-41.4-56-54.9-88.4c-4.4-10.5-7.5-21.4-11-32.2C226.7,592.4,226.7,589.3,226.2,585.9z"
			/>
		<path class="st0" d="M224.9,425.4c8.4-20.8,15.4-41,24.6-60c16.6-34.1,39.5-63.8,67.9-89c18.7-16.5,39.4-29.8,61.5-41.7
			c47.5-25.4,98-31.5,150.4-27.7c29.2,2.1,57.7,9.2,84.2,21.6c17.9,8.4,35.2,18.6,51.2,30.2c21.3,15.3,40.1,33.9,56.3,54.6
			c26,33.2,44.8,70.2,55.7,112C593.4,425.4,410.6,425.4,224.9,425.4z"/>
		<path class="st0" d="M555.9,531.2c-3.9,6.7-9.1,11.3-17.4,10.1c-6.7-1-12.6-8.6-13-17.4c-0.2-2.8,2.3-5.7,3.7-8.5
			c2.3-4.6,5.2-8.9,6.9-13.7c0.6-1.6-1.7-4.2-2.6-6.4c-2.1,1-5.5,1.4-6.2,3c-2.8,6.2-5.5,12.6-6.9,19.2c-1.1,5,0.1,10.5-0.3,15.8
			c-0.2,2.7-1.6,5.4-2.4,8.1c-2.7-1.3-5.3-2.6-8.7-4.2c-15.6,7.7-24.2,6.1-33.7-6.6c-4.1,1-7.9,1.8-11.7,2.8c-1.8,0.5-3.7,0.9-5.1,2
			c-10.9,8.9-17.3,8.7-27.5-1.3c-1.7,1.6-3.3,3.4-5.2,4.8c-8.3,6-17.1,2.2-17.7-8.1c-0.6-8.6-0.2-17.2-0.4-25.8
			c-0.1-3.2-0.6-6.4-1-11.2c-9.1,6.3-10.7,14.6-11.9,22.9c-0.8,6,0.2,12.2-0.5,18.3c-0.2,2.3-2.7,4.4-4.2,6.5
			c-1.7-2.2-4.6-4.3-4.7-6.5c-0.5-11.1-0.2-22.2-0.3-33.3c0-2.1-0.6-4.1-1.2-8.2c-8.6,7.3-11,15.8-11.9,24.7
			c-0.6,5.5,0.3,11.1-0.3,16.6c-0.3,2.3-2.5,4.5-3.9,6.7c-1.6-2.2-4.6-4.3-4.7-6.5c-0.5-11.1-0.3-22.2-0.3-33.3c0-4.1,0-8.2,0-15.3
			c4.6,3.1,7.7,5.2,11.1,7.5c10.2-10.3,14.7-10.3,20.9,1.3c0.5-0.2,1.2-0.2,1.5-0.6c3.5-4.9,7.3-9.8,14.2-7.2
			c6.5,2.3,6.4,8.4,6.4,14c0,7.8-0.1,15.6,0.1,23.3c0.1,2.9,1.1,5.7,1.9,9.4c7.4-4.5,8.2-10.8,9.2-17.3c1-6.5,1.8-13.2,3.8-19.4
			c1.4-4.1,4.9-7.5,7.5-11.2c1.1,0.3,2.3,0.7,3.4,1c-0.3,3.2,0.1,6.6-1.1,9.4c-4.2,10-6.9,20-2.2,30.5c1.1,2.5,3.9,5.7,6,5.8
			c2.4,0.1,4.9-2.9,7.8-4.9c-7.7-8.8-10.5-18.1-8.1-28c0.9-3.8,5.4-6.6,8.2-9.9c3.1,2.8,8,5.1,8.8,8.4c1.8,8.2,1.7,16.8,2.4,25.4
			c5.9,0.2,7.4-0.9,8.4-7c0.8-5.2,1.2-10.5,2.7-15.5c2.2-7.3,6.8-12.9,14.6-14.5c6.7-1.3,11.5,1.8,13.2,8.5c1.1,4.4,1.1,9-5.2,9.7
			c-0.6-0.6-1.1-1-1.4-1.4c-1.7-2.9-3.3-5.8-5-8.6c-2.3,3-5.7,5.7-6.8,9.1c-2.9,9.4-5.3,19.5,4.8,26.3c2.6,1.8,8.1,1.7,11,0.2
			c8.3-4.3,10.1-12.7,10.2-21.3c0.2-18.8,0.1-37.7,0.1-57.1c5.9-1.5,9.1,0.5,9.1,7.3c0,11.4,0,22.7,0,35.4c3.1-2.4,5.2-4.3,7.6-5.8
			c7.8-5.2,15.8-1.8,17.3,7.5c1.3,8.2-1.2,15.3-7.1,21.3c-4.2,4.3-3.6,11.3,1.6,14.3c1.4,0.8,5.4,0.1,6.1-1.1
			c2.9-5.4,5.2-11.2,7.4-17c2.6-7.1,3.9-14.9,7.4-21.5c2.8-5.3,8.8-7.7,15.2-5.1c5.9,2.4,6.6,7.6,6.6,13.2
			c-0.2,11.7-6.9,18.8-18.9,24.5c4.6,3.2,8.4,8,11.5,7.6c4.4-0.5,10.1-4,12-7.9c2.9-5.9,3.5-13.2,4.2-19.9
			c0.7-6.3,0.1-12.7,0.1-18.9c-4.7-2.4-12.8,1.3-12.5-8.6c3.8-0.4,7.5-0.8,11.8-1.2c0-8.4,0-16.8,0-25.7c6.5-2.3,9.9-0.5,9.8,6.9
			c-0.1,6.1,0,12.1,0,19.3c7.4,0,14.2-0.1,21.1,0c5.8,0.1,11.6,6.7,9.4,11.9c-3,6.9,1,11.4,3.6,16.6c3.3,6.5,6.2,13.2,9.8,21.1
			c2.7-3.1,6.1-6.8,11.3-12.7c0.6,4.3,2.1,7.7,1.1,10.3c-1.3,3.4-3.9,8-6.9,8.9c-11,3.2-20.9,12.1-33.7,6.9c-2-0.8-4.7-0.7-6.8,0
			c-8.7,3.1-10.6,2.8-17.6-4.1C575.7,544.8,566.5,543.6,555.9,531.2z M600.1,485.3c0,14-0.1,27,0.1,40c0,2.1,0.6,4.5,1.8,6.2
			c0.5,0.7,4.3,0.5,4.6-0.2c2.3-4.8,4.5-9.8,5.8-14.9c2.5-10.1,4.5-20.4,6.7-31.1C612,485.3,606.5,485.3,600.1,485.3z M617.8,526.5
			c4.9,0.8,8.9,1.4,13,2c0.1-4.9,1-10,0-14.7c-0.6-3-3.8-5.6-6.8-9.5C621.9,512.1,620.1,518.3,617.8,526.5z M562.9,516.6
			c9.8-6.1,12.1-13.8,6.8-22C562.7,500.5,563.4,508.3,562.9,516.6z M452.4,516.4c1.1-0.1,2.2-0.2,3.3-0.4
			c-0.5-5.8-0.9-11.5-1.4-17.3c-1.2,0.1-2.5,0.3-3.7,0.4C451.1,505,451.8,510.7,452.4,516.4z"/>
		<path d="M600.1,485.3c6.4,0,11.9,0,19.1,0c-2.3,10.7-4.2,21-6.7,31.1c-1.3,5.2-3.6,10.1-5.8,14.9c-0.3,0.7-4.1,0.9-4.6,0.2
			c-1.2-1.7-1.8-4.1-1.8-6.2C600,512.3,600.1,499.3,600.1,485.3z"/>
		<path d="M617.8,526.5c2.3-8.2,4-14.4,6.2-22.2c3,4,6.2,6.5,6.8,9.5c0.9,4.7,0.1,9.8,0,14.7C626.8,527.9,622.8,527.3,617.8,526.5z"
			/>
		<path d="M562.9,516.6c0.5-8.3-0.2-16,6.8-22C575,502.8,572.7,510.5,562.9,516.6z"/>
		<path d="M452.4,516.4c-0.6-5.7-1.2-11.4-1.8-17.2c1.2-0.1,2.5-0.3,3.7-0.4c0.5,5.8,0.9,11.5,1.4,17.3
			C454.6,516.2,453.5,516.3,452.4,516.4z"/>
	</g>
</g>
</svg>
